<?xml version="1.0" standalone="no"?>
<!DOCTYPE svg PUBLIC "-//W3C//DTD SVG 20010904//EN"
 "http://www.w3.org/TR/2001/REC-SVG-20010904/DTD/svg10.dtd">
<svg version="1.0" xmlns="http://www.w3.org/2000/svg"
 width="1024.000000pt" height="1024.000000pt" viewBox="0 0 1024.000000 1024.000000"
 preserveAspectRatio="xMidYMid meet">

<g transform="translate(0.000000,1024.000000) scale(0.100000,-0.100000)"
fill="currentColor" stroke="none">
<path d="M2280 9700 c-200 -9 -327 -24 -483 -56 -348 -73 -639 -227 -841 -445
-246 -266 -378 -559 -433 -959 -17 -129 -18 -277 -18 -3135 0 -3225 -2 -3081
52 -3325 71 -322 253 -630 493 -835 275 -235 544 -345 982 -403 124 -16 336
-17 3063 -17 3057 0 3023 0 3265 41 123 21 305 69 380 100 218 89 449 254 601
429 177 204 306 483 353 765 42 253 41 167 41 3255 0 3304 4 3087 -69 3379
-154 609 -600 1028 -1231 1156 -148 30 -253 41 -446 49 -229 10 -5483 10
-5709 1z m3974 -1240 c120 -14 213 -39 243 -64 l24 -21 -48 -65 c-152 -201
-271 -440 -304 -608 -10 -56 -10 -65 5 -80 31 -31 62 1 148 158 44 80 101 174
126 209 90 127 207 221 273 221 37 0 225 -80 315 -134 218 -130 376 -282 525
-504 153 -229 243 -473 292 -797 l22 -149 65 -18 c115 -33 117 -35 125 -84 3
-24 5 -78 4 -120 l-2 -75 36 -25 c66 -44 74 -93 28 -165 -58 -92 -211 -174
-499 -269 -129 -42 -219 -80 -332 -138 -233 -120 -438 -190 -676 -228 -224
-36 -815 -29 -1364 17 -748 62 -1232 152 -1390 260 -61 42 -82 73 -88 129 -6
63 30 133 113 215 60 60 191 164 254 201 27 16 29 22 36 103 40 509 189 904
467 1236 178 214 425 409 632 500 l58 26 -7 -28 c-41 -162 -70 -478 -47 -512
15 -21 51 4 72 52 10 23 46 152 80 287 81 326 94 364 134 395 85 65 433 103
680 75z m-3048 -345 c48 -31 36 -55 -165 -343 -202 -291 -218 -323 -208 -416
6 -63 23 -99 67 -143 39 -40 291 -196 344 -213 80 -26 188 2 250 65 17 17 116
152 219 298 189 268 205 285 254 275 22 -4 57 -89 81 -192 26 -112 22 -377 -7
-481 -39 -146 -113 -275 -220 -389 -141 -149 -278 -214 -541 -256 -226 -36
-261 -67 -459 -406 -657 -1124 -821 -1405 -844 -1440 -75 -119 -249 -192 -396
-165 -250 46 -388 296 -295 531 23 58 48 102 552 955 234 396 440 747 456 779
27 52 31 69 31 140 0 76 -3 87 -47 181 -85 181 -112 341 -84 503 66 380 368
669 763 732 82 13 220 4 249 -15z m3580 -2980 c283 -79 652 -194 698 -217 l39
-20 -114 -60 c-624 -328 -1122 -587 -1723 -892 -179 -91 -216 -106 -257 -106
-54 0 -177 38 -644 198 -346 118 -465 163 -465 173 0 16 2048 924 2175 965 63
20 80 17 291 -41z m883 -380 c16 -8 46 -34 68 -58 45 -52 197 -319 321 -565
l87 -172 -20 -36 c-22 -40 -38 -52 -700 -479 -593 -383 -957 -620 -1369 -892
-202 -134 -377 -243 -387 -243 -11 0 -24 10 -29 23 -5 12 -16 121 -25 242 -8
121 -27 362 -42 535 -14 173 -26 368 -27 432 -1 114 0 117 27 145 28 30 121
82 567 313 140 73 354 186 475 250 251 134 962 504 985 513 25 9 40 8 69 -8z
m-3396 -763 c89 -33 350 -120 580 -196 231 -75 426 -140 436 -145 9 -5 22 -20
29 -33 17 -34 132 -1140 132 -1276 0 -29 -7 -66 -15 -82 -13 -25 -22 -30 -53
-30 -62 0 -148 32 -1087 405 -458 182 -585 231 -687 264 -80 27 -118 64 -118
117 0 42 46 136 178 361 54 92 150 262 213 378 111 204 177 295 212 295 10 0
90 -26 180 -58z"/>
<path d="M5490 7621 c-313 -84 -533 -414 -490 -733 48 -351 314 -588 659 -588
169 0 306 52 426 162 266 244 308 635 99 919 -80 109 -228 209 -360 243 -84
22 -249 20 -334 -3z m236 -192 c283 -52 454 -353 354 -624 -79 -212 -295 -338
-505 -295 -245 51 -409 315 -351 564 33 140 123 259 240 316 95 47 164 57 262
39z"/>
<path d="M4365 6311 c157 -77 377 -142 625 -185 595 -102 1380 -98 1935 10
136 26 345 83 421 115 70 29 114 62 97 72 -5 3 -93 -10 -197 -29 -676 -124
-1492 -143 -2301 -53 -192 21 -448 60 -555 85 -36 8 -74 17 -85 19 -11 3 16
-13 60 -34z"/>
<path d="M1585 4891 c-168 -78 -164 -314 7 -385 101 -43 229 12 279 119 45 96
0 214 -102 266 -49 24 -131 25 -184 0z"/>
</g>
</svg>
