<svg xmlns="http://www.w3.org/2000/svg" viewBox="0 0 600 320">
  <defs>
    <linearGradient id="bg" x1="0%" y1="0%" x2="100%" y2="100%">
      <stop offset="0" stop-color="#101C3C"/>
      <stop offset="1" stop-color="#061023"/>
    </linearGradient>
    <linearGradient id="accent" x1="0%" y1="0%" x2="100%" y2="0%">
      <stop offset="0" stop-color="#27C7FF"/>
      <stop offset="1" stop-color="#1B74FF"/>
    </linearGradient>
    <linearGradient id="accent2" x1="0%" y1="0%" x2="0%" y2="100%">
      <stop offset="0" stop-color="#FFB347"/>
      <stop offset="1" stop-color="#FF7E47"/>
    </linearGradient>
    <filter id="shadow" x="-20%" y="-20%" width="140%" height="140%">
      <feDropShadow dx="0" dy="20" stdDeviation="20" flood-color="#000" flood-opacity="0.25"/>
    </filter>
  </defs>
  <rect width="600" height="320" fill="url(#bg)" rx="24"/>
  <g transform="translate(80,60)" fill="none" stroke-width="8">
    <path stroke="url(#accent)" d="M0 120c80-160 160 160 240 0s160-160 240 0" opacity="0.25"/>
    <path stroke="url(#accent2)" d="M0 160c80-120 160 120 240 0s160-120 240 0" opacity="0.2"/>
  </g>
  <g transform="translate(64,64)">
    <rect x="0" y="0" width="200" height="200" rx="32" fill="#0F284F" filter="url(#shadow)"/>
    <path d="M60 56h80l36 48-36 48H60L24 104z" fill="url(#accent)"/>
    <circle cx="160" cy="148" r="28" fill="url(#accent2)"/>
    <path d="M152 148l10 12 16-20" fill="none" stroke="#fff" stroke-width="6" stroke-linecap="round" stroke-linejoin="round"/>
  </g>
  <g transform="translate(300,96)" font-family="'Montserrat', 'Segoe UI', sans-serif" font-weight="600">
    <text x="0" y="66" font-size="72" fill="#FFFFFF">ToolMAPE</text>
    <text x="0" y="122" font-size="28" fill="#8DB9FF" letter-spacing="6">CONTROL DE TIEMPOS</text>
    <rect x="0" y="152" width="220" height="12" rx="6" fill="url(#accent)"/>
  </g>
</svg>
