<svg width="24" height="24" viewBox="0 0 24 24" fill="none" xmlns="http://www.w3.org/2000/svg">
  <path d="M2 15.5C2 14.1193 3.11929 13 4.5 13H14V10.5L12 8.5L13.5 7L17 10V13H19.5858C19.851 13 20.1054 13.1054 20.2929 13.2929L23 16L21 19H17.5L16 15.5H14V18H6.8C6.4076 19.1631 5.30622 20 4 20C2.34315 20 1 18.6569 1 17V16C1 15.4477 1.44772 15 2 15V15.5Z" fill="currentColor"/>
  <circle cx="7.5" cy="17.5" r="2.5" fill="currentColor"/>
  <circle cx="15.5" cy="17.5" r="2.5" fill="currentColor"/>
</svg>
