<svg width="24" height="24" viewBox="0 0 24 24" fill="none" xmlns="http://www.w3.org/2000/svg">
  <path d="M3 11.5C3 10.6716 3.67157 10 4.5 10H12.5C13.3284 10 14 10.6716 14 11.5V14.5H3V11.5Z" fill="currentColor"/>
  <path d="M9.5 6H13.5C14.3284 6 15 6.67157 15 7.5V10H9V6.5C9 6.22386 9.22386 6 9.5 6Z" fill="currentColor"/>
  <path d="M2 13H4.25L5.8 16H12.5V18.5H6.8C6.4076 19.6631 5.30622 20.5 4 20.5C2.34315 20.5 1 19.1569 1 17.5V15C1 13.8954 1.89543 13 3 13H2Z" fill="currentColor"/>
  <path d="M18.5 12.5H20.5858C20.851 12.5 21.1054 12.6054 21.2929 12.7929L23 14.5L21 17H18L16.5 13H18.5V12.5Z" fill="currentColor"/>
  <circle cx="7.5" cy="17.5" r="2.5" fill="currentColor"/>
  <circle cx="15.5" cy="17.5" r="2.5" fill="currentColor"/>
</svg>
